<svg width="28" height="29" viewBox="0 0 28 29" fill="none" xmlns="http://www.w3.org/2000/svg">
<g filter="url(#filter0_d_13_3392)">
<path d="M20.8879 9.976C21.0919 9.312 21.1999 8.64 21.1999 7.976C21.1999 5.404 19.2279 3.312 16.7999 3.312C15.1479 3.312 13.6319 4.212 12.7999 5.62C11.9679 4.212 10.4519 3.312 8.7999 3.312C6.3719 3.312 4.3999 5.404 4.3999 7.976C4.3999 13.84 12.2759 18.104 12.6119 18.284C12.6719 18.316 12.7359 18.332 12.7999 18.332C12.8639 18.332 12.9279 18.316 12.9879 18.284C12.9999 18.276 13.2879 18.124 13.7439 17.84C15.3439 19.52 17.2719 20.568 17.4119 20.64C17.4719 20.672 17.5359 20.688 17.5999 20.688C17.6639 20.688 17.7279 20.672 17.7879 20.64C18.0239 20.516 23.5999 17.492 23.5999 13.32C23.5999 11.628 22.4199 10.228 20.8879 9.976ZM12.7999 17.472C11.6119 16.792 5.1999 12.884 5.1999 7.976C5.1999 5.844 6.8159 4.112 8.7999 4.112C10.1399 4.112 11.7799 4.908 12.4239 6.692C12.4799 6.852 12.6319 6.956 12.7999 6.956C12.9679 6.956 13.1199 6.852 13.1759 6.692C13.8199 4.908 15.4599 4.112 16.7999 4.112C18.7839 4.112 20.3999 5.844 20.3999 7.976C20.3999 8.632 20.2799 9.296 20.0519 9.956C19.0559 10.06 18.1559 10.612 17.5999 11.444C16.9799 10.516 15.9319 9.932 14.7999 9.932C13.0359 9.932 11.5999 11.452 11.5999 13.32C11.5999 14.796 12.2959 16.124 13.2039 17.232C13.0399 17.332 12.8999 17.416 12.7999 17.472ZM17.5999 19.828C16.6439 19.272 12.3999 16.616 12.3999 13.32C12.3999 11.892 13.4759 10.732 14.7999 10.732C15.6959 10.732 16.7919 11.264 17.2239 12.46C17.2799 12.62 17.4319 12.724 17.5999 12.724C17.7679 12.724 17.9199 12.62 17.9759 12.46C18.4079 11.268 19.5039 10.732 20.3999 10.732C21.7239 10.732 22.7999 11.892 22.7999 13.32C22.7999 16.616 18.5559 19.272 17.5999 19.828Z" fill="black"/>
</g>
<defs>
<filter id="filter0_d_13_3392" x="-2" y="0" width="32" height="32" filterUnits="userSpaceOnUse" color-interpolation-filters="sRGB">
<feFlood flood-opacity="0" result="BackgroundImageFix"/>
<feColorMatrix in="SourceAlpha" type="matrix" values="0 0 0 0 0 0 0 0 0 0 0 0 0 0 0 0 0 0 127 0" result="hardAlpha"/>
<feOffset dy="4"/>
<feGaussianBlur stdDeviation="2"/>
<feComposite in2="hardAlpha" operator="out"/>
<feColorMatrix type="matrix" values="0 0 0 0 0 0 0 0 0 0 0 0 0 0 0 0 0 0 0.25 0"/>
<feBlend mode="normal" in2="BackgroundImageFix" result="effect1_dropShadow_13_3392"/>
<feBlend mode="normal" in="SourceGraphic" in2="effect1_dropShadow_13_3392" result="shape"/>
</filter>
</defs>
</svg>
